<?xml version="1.0" encoding="utf-8"?><svg viewBox="0 0 20 20" xmlns="http://www.w3.org/2000/svg" xmlns:xlink="http://www.w3.org/1999/xlink"><style>:root>svg{display:none}:root>svg:target{display:block}</style><svg viewBox="0 0 18 18" id="bot" xmlns="http://www.w3.org/2000/svg"><path fill-rule="evenodd" clip-rule="evenodd" d="m10.71 3.002-.592-.46-.92 1.184.592.46 2.774 2.158H3v1.5h10.293c1.19 0 1.707-1.506.767-2.236l-3.35-2.606Zm0 11.934-.592.46-.92-1.183.592-.46 2.774-2.159H3v-1.5h10.293c1.19 0 1.707 1.506.767 2.237l-3.35 2.605Z"/></svg><svg viewBox="0 0 448 512" id="check" xmlns="http://www.w3.org/2000/svg"><!--!Font Awesome Free 6.5.1 by @fontawesome - https://fontawesome.com License - https://fontawesome.com/license/free Copyright 2023 Fonticons, Inc.--><path fill="#fff" d="M438.6 105.4c12.5 12.5 12.5 32.8 0 45.3l-256 256c-12.5 12.5-32.8 12.5-45.3 0l-128-128c-12.5-12.5-12.5-32.8 0-45.3s32.8-12.5 45.3 0L160 338.7l233.4-233.3c12.5-12.5 32.8-12.5 45.3 0z"/></svg><svg fill="none" viewBox="0 0 20 20" id="wallet" xmlns="http://www.w3.org/2000/svg"><path d="M4.6 7.962h3.6M17.95 8.862h-2.342c-1.607 0-2.908 1.208-2.908 2.7 0 1.49 1.302 2.7 2.907 2.7h2.343c.075 0 .112 0 .144-.002.486-.03.873-.389.904-.84.002-.029.002-.064.002-.133v-3.45c0-.07 0-.105-.002-.134-.032-.45-.418-.81-.904-.84l-.144-.001Z"/><path d="M18.069 8.862c-.07-1.685-.296-2.718-1.024-3.446-1.054-1.054-2.751-1.054-6.145-1.054H8.2c-3.394 0-5.091 0-6.145 1.054C1 6.47 1 8.168 1 11.562s0 5.09 1.055 6.145c1.054 1.055 2.751 1.055 6.145 1.055h2.7c3.394 0 5.091 0 6.145-1.055.728-.727.954-1.76 1.023-3.445M4.6 4.362l3.362-2.23a2.913 2.913 0 0 1 3.177 0l3.361 2.23M15.392 11.562h.009"/></svg></svg>