<svg width="610" height="114" viewBox="0 0 610 114" fill="none" xmlns="http://www.w3.org/2000/svg">
<g opacity="0.44" filter="url(#filter0_f_245_80)">
<path fill-rule="evenodd" clip-rule="evenodd" d="M132.381 35.415L107.191 57.651L104.568 59.9673L99.935 54.7195L102.559 52.4032L119.853 37.137C108.333 25.5018 89.2224 24.8032 76.8957 35.6847C64.4691 46.6542 63.6366 65.252 75.0333 77.2879L75.0333 77.2879C86.4957 89.3934 105.968 90.2651 118.466 79.2322L131.061 68.1142L143.656 56.9963L146.279 54.68L150.912 59.9278L148.288 62.2441L135.694 73.3621L130.994 77.5102C142.514 89.1455 161.624 89.8441 173.951 78.9626L176.268 81.5865L173.951 78.9625C186.378 67.9931 187.21 49.3953 175.814 37.3593C164.351 25.2539 144.879 24.3822 132.381 35.415ZM123.099 84.48L125.74 82.149C139.831 96.6894 163.369 97.6417 178.584 84.2104C193.981 70.6191 195.017 47.4592 180.897 32.5464C166.841 17.7029 143.073 16.6389 127.748 30.1672L125.107 32.4983C111.016 17.9579 87.4783 17.0057 72.2632 30.4368C56.8665 44.0282 55.8297 67.1881 69.9504 82.1008C84.0055 96.9445 107.774 98.0085 123.099 84.48ZM138.295 50.5079L140.952 48.2306L136.398 42.9149L133.74 45.1921L112.312 63.5512L109.654 65.8284L114.209 71.1442L116.866 68.867L138.295 50.5079Z" fill="url(#paint0_linear_245_80)"/>
</g>
<path fill-rule="evenodd" clip-rule="evenodd" d="M130.754 33.2645L106.584 56.6047L102.987 60.078L96.0409 52.8846L99.6376 49.4113L115.057 34.521C103.571 25.0206 86.205 25.5187 75.3355 36.0152L75.3355 36.0152C64.0226 46.9398 64.0226 64.5776 75.3355 75.5021L75.3355 75.5021C86.7465 86.5216 105.317 86.5216 116.728 75.5021L128.813 63.8321L140.898 52.162L144.494 48.6887L151.441 55.8821L147.844 59.3554L135.759 71.0255L132.425 74.2457C143.911 83.7461 161.277 83.248 172.146 72.7514L172.146 72.7514C183.459 61.8269 183.459 44.1891 172.146 33.2646L175.593 29.6952L172.146 33.2645C160.735 22.2452 142.165 22.2451 130.754 33.2645ZM123.675 82.6955L125.198 81.2248C140.557 94.6934 164.262 94.2667 179.093 79.9448C194.477 65.0888 194.477 40.9271 179.093 26.0711C163.807 11.3096 139.093 11.3096 123.807 26.0711L122.284 27.5419C106.924 14.0734 83.2197 14.5 68.389 28.8218C53.0048 43.6779 53.0048 67.8396 68.389 82.6955C83.675 97.4572 108.389 97.4571 123.675 82.6955ZM137.32 48.0932L140.967 44.6735L134.128 37.3781L130.48 40.7978L109.895 60.0969L106.247 63.5166L113.086 70.8119L116.734 67.3922L137.32 48.0932Z" fill="#FF4D00"/>
<path d="M224.959 90.0128C216.102 90.0128 209.098 87.9435 203.949 83.8048C198.868 79.6662 196.293 73.8314 196.224 66.3005C196.224 65.9613 196.396 65.7917 196.739 65.7917H206.936C207.279 65.7917 207.451 65.9613 207.451 66.3005C207.519 71.1176 209.133 74.8491 212.291 77.4951C215.45 80.0733 219.638 81.3624 224.856 81.3624C229.869 81.3624 233.851 80.209 236.803 77.9022C239.756 75.5954 241.232 72.4406 241.232 68.4377C241.232 65.9274 240.408 63.9259 238.76 62.4333C237.181 60.9407 235.087 59.8891 232.478 59.2784C229.937 58.6678 227.088 58.159 223.929 57.7519C220.84 57.277 217.715 56.7003 214.557 56.0218C211.467 55.3434 208.618 54.3935 206.009 53.1723C203.468 51.8832 201.374 49.9157 199.726 47.2697C198.147 44.5558 197.357 41.1974 197.357 37.1945C197.357 30.817 199.795 25.8303 204.67 22.2344C209.613 18.5707 216.136 16.7389 224.238 16.7389C231.86 16.7389 237.971 18.6386 242.571 22.438C247.171 26.2374 249.609 31.5294 249.883 38.314C249.883 38.6532 249.712 38.8228 249.368 38.8228H239.275C238.932 38.8228 238.76 38.6532 238.76 38.314C238.486 34.1075 237.044 30.9187 234.435 28.7477C231.825 26.5087 228.152 25.3893 223.414 25.3893C218.883 25.3893 215.278 26.4748 212.6 28.6459C209.922 30.7491 208.583 33.6326 208.583 37.2963C208.583 40.078 209.648 42.2491 211.776 43.8095C213.973 45.3021 216.686 46.252 219.913 46.6591C223.208 47.0661 226.744 47.6428 230.521 48.3891C234.297 49.0676 237.799 49.9157 241.026 50.9334C244.322 51.9511 247.034 53.8847 249.162 56.7342C251.36 59.5159 252.458 63.1796 252.458 67.7253C252.458 74.5778 249.918 80.0054 244.837 84.0084C239.824 88.0113 233.199 90.0128 224.959 90.0128Z" fill="#272727"/>
<path d="M310.539 17.7566C310.883 17.7566 311.054 17.9262 311.054 18.2654V26.407C311.054 26.7462 310.883 26.9158 310.539 26.9158H288.087V88.4862C288.087 88.8254 287.915 88.9951 287.572 88.9951H277.994C277.651 88.9951 277.479 88.8254 277.479 88.4862V26.9158H255.027C254.683 26.9158 254.512 26.7462 254.512 26.407V18.2654C254.512 17.9262 254.683 17.7566 255.027 17.7566H310.539Z" fill="#272727"/>
<path d="M344.998 90.0128C334.698 90.0128 326.631 86.7222 320.794 80.1411C315.027 73.5601 312.143 64.6383 312.143 53.3758C312.143 42.2491 315.13 33.3612 321.103 26.7123C327.077 20.0634 335.213 16.7389 345.513 16.7389C353.958 16.7389 360.79 18.7404 366.008 22.7433C371.295 26.6784 374.659 32.6149 376.101 40.5529C376.239 40.96 376.067 41.1635 375.586 41.1635H365.184C364.91 41.1635 364.704 40.9939 364.566 40.6547C362.644 30.4099 356.258 25.2875 345.41 25.2875C338.543 25.2875 333.154 27.8657 329.24 33.022C325.395 38.1783 323.472 44.9629 323.472 53.3758C323.472 61.7209 325.395 68.5055 329.24 73.7297C333.085 78.886 338.337 81.4641 344.998 81.4641C350.285 81.4641 354.713 79.8698 358.284 76.681C361.923 73.4922 364.12 69.3536 364.875 64.2651C365.012 63.9259 365.218 63.7563 365.493 63.7563H375.689C376.17 63.7563 376.342 63.9259 376.204 64.2651C374.762 72.271 371.261 78.5807 365.699 83.1942C360.138 87.7399 353.237 90.0128 344.998 90.0128Z" fill="#272727"/>
<path d="M442.302 17.7566C442.645 17.7566 442.817 17.9262 442.817 18.2654V88.4862C442.817 88.8254 442.645 88.9951 442.302 88.9951H432.724C432.381 88.9951 432.209 88.8254 432.209 88.4862V55.6147H398.221V88.4862C398.221 88.8254 398.05 88.9951 397.706 88.9951H388.128C387.785 88.9951 387.613 88.8254 387.613 88.4862V18.2654C387.613 17.9262 387.785 17.7566 388.128 17.7566H397.706C398.05 17.7566 398.221 17.9262 398.221 18.2654V46.9644H432.209V18.2654C432.209 17.9262 432.381 17.7566 432.724 17.7566H442.302Z" fill="#272727"/>
<path d="M518.494 88.3845C518.563 88.7915 518.425 88.9951 518.082 88.9951H506.753C506.547 88.9951 506.375 88.8594 506.238 88.588L500.573 69.8624H470.293L464.629 88.588C464.492 88.8594 464.32 88.9951 464.114 88.9951H452.785C452.441 88.9951 452.304 88.7915 452.373 88.3845L475.134 18.1637C475.271 17.8923 475.443 17.7566 475.649 17.7566H495.321C495.527 17.7566 495.698 17.8923 495.836 18.1637L518.494 88.3845ZM473.074 61.0085H497.895L485.536 20.3008H485.433L473.074 61.0085Z" fill="#272727"/>
<path d="M528.073 88.9951C527.73 88.9951 527.558 88.8254 527.558 88.4862V18.2654C527.558 17.9262 527.73 17.7566 528.073 17.7566H537.651C537.995 17.7566 538.166 17.9262 538.166 18.2654V88.4862C538.166 88.8254 537.995 88.9951 537.651 88.9951H528.073Z" fill="#272727"/>
<path d="M551.081 88.9951C550.738 88.9951 550.566 88.8254 550.566 88.4862V18.2654C550.566 17.9262 550.738 17.7566 551.081 17.7566H570.959C571.234 17.7566 571.405 17.8923 571.474 18.1637L598.973 86.4508H599.179V18.2654C599.179 17.9262 599.35 17.7566 599.694 17.7566H609.272C609.615 17.7566 609.787 17.9262 609.787 18.2654V88.4862C609.787 88.8254 609.615 88.9951 609.272 88.9951H589.292C589.086 88.9951 588.914 88.8594 588.777 88.588L561.381 20.3008H561.175V88.4862C561.175 88.8254 561.003 88.9951 560.66 88.9951H551.081Z" fill="#272727"/>
<path d="M39.7178 51.8358C44.0394 52.7963 47.4007 54.8543 49.8016 58.01C52.2025 61.0971 53.403 64.9731 53.403 69.638C53.403 76.2238 51.1393 81.266 46.6118 84.7647C42.153 88.2634 35.8421 90.0128 27.679 90.0128H0.514479C0.171493 90.0128 0 89.8413 0 89.4983V18.4953C0 18.1523 0.171493 17.9808 0.514479 17.9808H25.9298C33.8871 17.9808 40.0265 19.5244 44.3481 22.6115C48.7384 25.6985 50.9335 30.2263 50.9335 36.1946C50.9335 44.0838 47.1949 49.2976 39.7178 51.8358ZM26.4442 26.4189H10.5983V48.0284H26.7529C30.8002 48.0284 33.9556 47.1023 36.2194 45.2501C38.5517 43.3292 39.7178 40.6194 39.7178 37.1208C39.7178 33.5535 38.5517 30.878 36.2194 29.0943C33.8871 27.3107 30.6287 26.4189 26.4442 26.4189ZM27.9877 81.5747C32.6523 81.5747 36.1851 80.5114 38.586 78.3848C40.9869 76.2581 42.1873 73.2396 42.1873 69.3293C42.1873 65.1446 40.8154 61.9889 38.0715 59.8623C35.3276 57.7356 31.5204 56.6723 26.65 56.6723H10.5983V81.5747H27.9877Z" fill="#272727"/>
<defs>
<filter id="filter0_f_245_80" x="40.0022" y="0.678223" width="170.843" height="113.291" filterUnits="userSpaceOnUse" color-interpolation-filters="sRGB">
<feFlood flood-opacity="0" result="BackgroundImageFix"/>
<feBlend mode="normal" in="SourceGraphic" in2="BackgroundImageFix" result="shape"/>
<feGaussianBlur stdDeviation="10" result="effect1_foregroundBlur_245_80"/>
</filter>
<linearGradient id="paint0_linear_245_80" x1="58.5544" y1="32.5887" x2="192.723" y2="98.8274" gradientUnits="userSpaceOnUse">
<stop stop-color="#FF4D00"/>
<stop offset="1" stop-color="white"/>
</linearGradient>
</defs>
</svg>
